PathFileType	4	(X/Y/Z)	G:\GRF\jawan data\CompiledGRF\03. Mohit Kumar\0231~ac~Walking 07_markers.trc
DataRate	CameraRate	NumFrames	NumMarkers	Units	OrigDataRate	OrigDataStartFrame	OrigNumFrames
100.000000	100.000000	16	18	mm	100.000000	839	959
Frame#	Time	c7			r should			l should			sacrum			r asis			r bar 1			r knee 1			r bar 2			r mall			r heel			r met			l asis			l bar 1			l knee 1			l bar 2			l mall			l heel			l met			
		X1	Y1	Z1	X2	Y2	Z2	X3	Y3	Z3	X4	Y4	Z4	X5	Y5	Z5	X6	Y6	Z6	X7	Y7	Z7	X8	Y8	Z8	X9	Y9	Z9	X10	Y10	Z10	X11	Y11	Z11	X12	Y12	Z12	X13	Y13	Z13	X14	Y14	Z14	X15	Y15	Z15	X16	Y16	Z16	X17	Y17	Z17	X18	Y18	Z18	

840	8.390000000000001	3051.223388671875	1477.138793945313	226.6161499023438	3111.19677734375	1426.409545898438	386.5620727539063	3100.588134765625	1442.568237304688	61.41508483886719	nan	nan	nan	3159.04638671875	986.5870361328125	323.4647216796875	nan	nan	nan	nan	nan	nan	nan	nan	nan	nan	nan	nan	nan	nan	nan	nan	nan	nan	3130.41064453125	987.44140625	75.70537567138672	2994.083740234375	576.5260620117188	16.90327835083008	nan	nan	nan	2813.52294921875	259.4667358398438	25.08432769775391	2718.824951171875	112.547737121582	95.24640655517578	nan	nan	nan	nan	nan	nan	
841	8.4	3059.626220703125	1477.170288085938	227.8822174072266	3121.192138671875	1426.962158203125	388.5267333984375	3110.398681640625	1443.573852539063	63.66536712646484	nan	nan	nan	3169.73828125	987.745361328125	325.1498718261719	nan	nan	nan	nan	nan	nan	nan	nan	nan	nan	nan	nan	nan	nan	nan	nan	nan	nan	3141.421142578125	987.4994506835938	77.15161895751953	3007.664794921875	576.0375366210938	16.5879955291748	nan	nan	nan	2822.6689453125	262.3501892089844	24.64287376403809	2724.352783203125	117.6032180786133	94.68866729736328	nan	nan	nan	nan	nan	nan	
842	8.41	nan	nan	nan	3131.1240234375	1427.763427734375	390.553466796875	3118.45703125	1444.388916015625	65.46370697021484	nan	nan	nan	3180.2939453125	989.0281372070313	327.06787109375	nan	nan	nan	nan	nan	nan	nan	nan	nan	nan	nan	nan	nan	nan	nan	nan	nan	nan	3152.37548828125	987.68798828125	78.93540954589844	3022.360107421875	575.6949462890625	16.12955665588379	nan	nan	nan	2832.644287109375	265.69970703125	24.02968597412109	2730.734619140625	123.0952224731445	94.39482116699219	nan	nan	nan	nan	nan	nan	
843	8.42	3099.96630859375	1478.076904296875	233.5601348876953	3141.236572265625	1428.953369140625	392.5571594238281	3126.132080078125	1445.103149414063	67.00300598144531	nan	nan	nan	3190.8271484375	990.4400024414063	329.1944274902344	nan	nan	nan	nan	nan	nan	nan	nan	nan	nan	nan	nan	nan	nan	nan	nan	nan	nan	3162.796875	988.0499877929688	81.20402526855469	3037.649658203125	575.1856689453125	15.23353672027588	nan	nan	nan	2843.932861328125	269.2747192382813	23.09606742858887	2738.068603515625	128.8780364990234	94.22158813476563	nan	nan	nan	nan	nan	nan	
844	8.43	3104.382080078125	1478.927734375	234.6596221923828	3151.21484375	1430.254638671875	394.4587707519531	3135.810791015625	1446.171264648438	69.02458953857422	nan	nan	nan	3201.44287109375	991.9700927734375	331.3839721679688	nan	nan	nan	nan	nan	nan	nan	nan	nan	nan	nan	nan	nan	nan	nan	nan	nan	nan	3172.24365234375	988.3794555664063	84.04694366455078	3054.037109375	574.9912109375	13.88285350799561	nan	nan	nan	2855.71484375	273.00439453125	22.18769454956055	2746.894775390625	135.1774291992188	94.03668212890625	nan	nan	nan	nan	nan	nan	
845	8.44	3113.103271484375	1479.397338867188	236.7373962402344	3161.147705078125	1431.618286132813	396.3332214355469	3145.791015625	1447.686401367188	70.79384613037109	nan	nan	nan	3212.1025390625	993.5380249023438	333.5152282714844	nan	nan	nan	nan	nan	nan	nan	nan	nan	nan	nan	nan	nan	nan	nan	nan	nan	nan	nan	nan	nan	3070.76708984375	574.3777465820313	12.41937923431396	nan	nan	nan	2866.729248046875	277.8052978515625	21.84402275085449	2757.4375	141.9704132080078	93.75259399414063	nan	nan	nan	nan	nan	nan	
846	8.449999999999999	3121.8515625	1479.480346679688	238.3075256347656	3171.416015625	1433.17578125	398.2261352539063	3155.57568359375	1449.176147460938	72.44477081298828	3013.95166015625	1025.310424804688	225.443603515625	3222.68017578125	994.941650390625	335.3875732421875	nan	nan	nan	nan	nan	nan	nan	nan	nan	nan	nan	nan	nan	nan	nan	nan	nan	nan	nan	nan	nan	3088.148681640625	573.873291015625	10.82770156860352	nan	nan	nan	2880.053466796875	282.9227294921875	21.3224048614502	2769.21435546875	148.8869323730469	93.64344024658203	nan	nan	nan	nan	nan	nan	
847	8.460000000000001	nan	nan	nan	3181.371337890625	1434.435791015625	399.7812805175781	3165.500732421875	1450.671875	74.09748840332031	nan	nan	nan	3233.341796875	996.198486328125	336.9756469726563	nan	nan	nan	nan	nan	nan	nan	nan	nan	nan	nan	nan	nan	nan	nan	nan	nan	nan	nan	nan	nan	3105.75048828125	573.2510375976563	9.413567543029785	nan	nan	nan	2894.38427734375	288.2554626464844	21.33572769165039	2780.252197265625	156.9871673583984	93.56684875488281	nan	nan	nan	nan	nan	nan	
848	8.470000000000001	nan	nan	nan	3191.41259765625	1435.626342773438	401.1206970214844	3174.9775390625	1451.776977539063	76.02210998535156	nan	nan	nan	3243.9873046875	997.1735229492188	338.2979125976563	nan	nan	nan	nan	nan	nan	nan	nan	nan	nan	nan	nan	nan	nan	nan	nan	nan	nan	nan	nan	nan	3123.468017578125	572.6901245117188	8.406488418579102	nan	nan	nan	nan	nan	nan	2789.806640625	166.3150482177734	93.29461669921875	nan	nan	nan	nan	nan	nan	
849	8.48	nan	nan	nan	3201.753173828125	1436.787841796875	402.40869140625	3183.456298828125	1452.63671875	77.72328186035156	nan	nan	nan	3254.47119140625	997.858642578125	339.4142456054688	nan	nan	nan	nan	nan	nan	nan	nan	nan	nan	nan	nan	nan	nan	nan	nan	nan	nan	nan	nan	nan	3140.899169921875	572.1525268554688	7.851148128509521	nan	nan	nan	nan	nan	nan	2804.240478515625	174.4785003662109	92.64870452880859	nan	nan	nan	nan	nan	nan	
850	8.49	nan	nan	nan	3211.876953125	1437.56591796875	403.340576171875	3189.06787109375	1453.177490234375	78.65350341796875	nan	nan	nan	3264.641845703125	998.4004516601563	340.3782348632813	nan	nan	nan	nan	nan	nan	nan	nan	nan	nan	nan	nan	nan	nan	nan	nan	nan	nan	nan	nan	nan	3158.025390625	572.0591430664063	7.526882171630859	nan	nan	nan	nan	nan	nan	2820.561767578125	182.3977966308594	91.93808746337891	nan	nan	nan	nan	nan	nan	
851	8.5	3156.690185546875	1487.54345703125	246.3661499023438	3222.177001953125	1438.283447265625	404.0444641113281	nan	nan	nan	nan	nan	nan	3274.545654296875	999.0011596679688	341.3184509277344	nan	nan	nan	nan	nan	nan	nan	nan	nan	nan	nan	nan	nan	nan	nan	nan	nan	nan	nan	nan	nan	3174.40478515625	572.71875	8.053797721862793	nan	nan	nan	nan	nan	nan	2837.80419921875	189.9281616210938	91.45839691162109	nan	nan	nan	nan	nan	nan	
852	8.51	nan	nan	nan	3232.470703125	1439.075439453125	405.4178466796875	3214.143798828125	1456.010864257813	82.43480682373047	nan	nan	nan	3284.1357421875	999.7286987304688	342.3297119140625	nan	nan	nan	nan	nan	nan	nan	nan	nan	nan	nan	nan	nan	nan	nan	nan	nan	nan	nan	nan	nan	3191.323974609375	574.213134765625	8.786797523498535	nan	nan	nan	nan	nan	nan	2857.079833984375	196.6029357910156	91.20235443115234	nan	nan	nan	nan	nan	nan	
853	8.52	nan	nan	nan	3242.34423828125	1439.856689453125	406.8386535644531	3220.387939453125	1456.54443359375	83.12331390380859	3094.250732421875	1027.902709960938	239.9142608642578	3293.389892578125	1000.60546875	343.4144592285156	nan	nan	nan	nan	nan	nan	nan	nan	nan	nan	nan	nan	nan	nan	nan	nan	nan	nan	nan	nan	nan	3208.10986328125	575.6040649414063	9.423723220825195	nan	nan	nan	nan	nan	nan	2876.38623046875	203.1664581298828	91.28495788574219	nan	nan	nan	nan	nan	nan	
854	8.529999999999999	3193.00830078125	1490.057983398438	250.7062225341797	3252.290283203125	1440.760864257813	407.9835510253906	3225.228515625	1457.005004882813	83.49542999267578	3104.041015625	1028.106079101563	240.7129974365234	3302.34716796875	1001.576171875	344.6623229980469	nan	nan	nan	nan	nan	nan	nan	nan	nan	nan	nan	nan	nan	nan	nan	nan	nan	nan	nan	nan	nan	3224.945556640625	577.3923950195313	10.29946422576904	nan	nan	nan	nan	nan	nan	2894.368896484375	208.9096832275391	91.6663818359375	nan	nan	nan	nan	nan	nan	
855	8.540000000000001	nan	nan	nan	3261.8984375	1441.55419921875	409.1593322753906	nan	nan	nan	3114.894775390625	1028.807006835938	241.3734588623047	3311.052001953125	1002.610229492188	346.0666198730469	nan	nan	nan	nan	nan	nan	nan	nan	nan	nan	nan	nan	nan	nan	nan	nan	nan	nan	nan	nan	nan	3241.999755859375	579.33837890625	10.816481590271	nan	nan	nan	nan	nan	nan	2913.07080078125	213.8166961669922	92.13597106933594	nan	nan	nan	nan	nan	nan	
